# xmcd
#
# Track frame offsets: 
#        150
#        19662
#        33780
#        52723
#        67637
#        81544
#        100712
#        119162
#        140675
#
# Disc length: 2177 seconds
#
# Revision: 0
# Processed by: cddbd v1.5.1PL0 Copyright (c) Steve Scherf et al.
# Submitted via: ExactAudioCopy v0.90b4
#
DISCID=6d087f09
DTITLE=Leanne Binder and The Steel City Blues Band - Leanne Binder and The
DTITLE=Steel City Blues Band
DYEAR=1900
DGENRE=Blues
TTITLE0=I Don't Wanna Hear
TTITLE1=The Answer
TTITLE2=Heartbreak
TTITLE3=4 Outta 5 Men
TTITLE4=Simple Song
TTITLE5=Never Wanna Lose You
TTITLE6=Piece of My Heart
TTITLE7=Jim's Song
TTITLE8=Come Morning
EXTD=
EXTT0=
EXTT1=
EXTT2=
EXTT3=
EXTT4=
EXTT5=
EXTT6=
EXTT7=
EXTT8=
PLAYORDER=
